<svg xmlns="http://www.w3.org/2000/svg" viewBox="0 0 400 50">
  <defs>
    <style>
      .spacex-text { fill: #005288; }
      .spacex-x { fill: #005288; }
      .spacex-swoosh { fill: #a7a9ac; }
    </style>
  </defs>
  
  <!-- S -->
  <path class="spacex-text" d="M37.5,30.5H10.9v-6.6h34.3c-0.9-10.8-9.3-19.2-19.9-19.2c-11,0-19.9,8.9-19.9,19.9s8.9,19.9,19.9,19.9
    c7.8,0,14.6-4.5,17.9-11.1h-6.6C33.1,28.1,30.4,30.5,37.5,30.5z"/>
  
  <!-- P -->
  <path class="spacex-text" d="M91.8,18.6H78.9v30.9H71V2.4h20.8c11.2,0,20.2,9.1,20.2,20.3v1.1c0,11.2-9.1,20.3-20.2,20.3h-0.1V18.6z
     M91.8,11.8c-7.3,0-13.2,5.9-13.2,13.2s5.9,13.2,13.2,13.2s13.2-5.9,13.2-13.2S99.1,11.8,91.8,11.8z"/>
  
  <!-- A -->
  <path class="spacex-text" d="M129.9,17.3l-6.2,14.9h12.4L129.9,17.3z M134.4,40.1l-2.6-6.2H120l-2.6,6.2h-8.6l16.1-37.7h8.6l16.1,37.7
    H134.4z"/>
  
  <!-- C -->
  <path class="spacex-text" d="M171.4,41.2c-11,0-19.9-8.9-19.9-19.9s8.9-19.9,19.9-19.9c7.8,0,14.6,4.5,17.9,11.1h-6.6
    c-3.5-4.6-6.2-7-11.3-7c-7.3,0-13.2,5.9-13.2,13.2s5.9,13.2,13.2,13.2c5.1,0,7.8-2.4,11.3-7h6.6
    C186,36.7,179.2,41.2,171.4,41.2z"/>
  
  <!-- E -->
  <path class="spacex-text" d="M220.4,2.4v6.9h-26.5v10.2h23.6v6.9h-23.6v10.8h26.5v6.9h-34.4V2.4H220.4z"/>
  
  <!-- X with swoosh -->
  <g>
    <path class="spacex-x" d="M261.7,2.4l-12.2,18.5l12.6,19.2h-9.7l-7.6-11.7l-7.6,11.7h-9.7l12.6-19.2L227.9,2.4h9.7l7.2,11l7.2-11
      H261.7z"/>
    <path class="spacex-swoosh" d="M287.6,4.7c2.8-1.1,5.7-1.8,8.7-1.8c19.2,0,34.8,15.6,34.8,34.8c0,8.9-3.3,17-8.8,23.2
      c2.4-0.7,4.7-1.8,6.8-3.1c7.3-7.3,11.8-17.4,11.8-28.6c0-22.4-18.2-40.6-40.6-40.6c-4.8,0-9.4,0.8-13.7,2.3L287.6,4.7z"/>
  </g>
</svg>
